<?xml version="1.0" encoding="UTF-8" standalone="no"?><!DOCTYPE svg PUBLIC "-//W3C//DTD SVG 1.1//EN" "http://www.w3.org/Graphics/SVG/1.1/DTD/svg11.dtd"><svg width="100%" height="100%" viewBox="0 0 5000 5000" version="1.1" xmlns="http://www.w3.org/2000/svg" xmlns:xlink="http://www.w3.org/1999/xlink" xml:space="preserve" xmlns:serif="http://www.serif.com/" style="fill-rule:evenodd;clip-rule:evenodd;stroke-linejoin:round;stroke-miterlimit:2;"><g><path d="M2500,4050c854.5,0 1550,-695.5 1550,-1550c0,-854.5 -695.5,-1550 -1550,-1550c-854.5,0 -1550,695.5 -1550,1550c0,854.5 695.5,1550 1550,1550Zm0,-2800c689.5,0 1250,560.5 1250,1250c0,689.5 -560.5,1250 -1250,1250c-689.5,0 -1250,-560.5 -1250,-1250c0,-689.5 560.5,-1250 1250,-1250Z" style="fill-rule:nonzero;"/><g><path d="M2500,3150c82.504,0 150,-67.496 150,-150l0,-400c0,-82.504 -67.496,-150 -150,-150c-82.504,0 -150,67.496 -150,150l0,400c0,82.504 67.496,150 150,150Z" style="fill-rule:nonzero;"/><path d="M2650,1900c0,82.846 -67.154,150 -150,150c-82.846,0 -150,-67.154 -150,-150c0,-82.846 67.154,-150 150,-150c82.846,0 150,67.154 150,150" style="fill-rule:nonzero;"/></g></g></svg>