<?xml version="1.0" encoding="UTF-8"?>
<svg width="1200pt" height="1200pt" version="1.1" viewBox="0 0 1200 1200" xmlns="http://www.w3.org/2000/svg">
 <g>
  <path d="m972 384c0-86.039-69.961-156-156-156h-432c-86.039 0-156 69.961-156 156v432c0 86.039 69.961 156 156 156h432c86.039 0 156-69.961 156-156zm-72 432c0 46.32-37.68 84-84 84h-432c-46.32 0-84-37.68-84-84v-432c0-46.32 37.68-84 84-84h432c46.32 0 84 37.68 84 84z"/>
  <path d="m684 408h-141.96c-19.559 0-36.121 14.281-37.922 32.398-0.96094 10.32 2.2812 20.16 9.1211 27.84 6.8398 7.4414 16.559 11.762 26.641 11.762h129.12l-238.56 238.56c-14.039 14.039-14.039 36.84 0 50.879 13.559 13.559 37.32 13.559 50.879 0l238.56-238.56v126.96c0 19.559 14.281 36.121 32.398 37.922 10.32 0.83984 20.16-2.2812 27.719-9.2383 7.4414-6.8398 11.762-16.559 11.762-26.641v-144c0-59.52-48.48-108-108-108z"/>
 </g>
</svg>
