<?xml version="1.0" encoding="UTF-8" standalone="no"?><!DOCTYPE svg PUBLIC "-//W3C//DTD SVG 1.1//EN" "http://www.w3.org/Graphics/SVG/1.1/DTD/svg11.dtd"><svg width="100%" height="100%" viewBox="0 0 5000 5000" version="1.1" xmlns="http://www.w3.org/2000/svg" xmlns:xlink="http://www.w3.org/1999/xlink" xml:space="preserve" xmlns:serif="http://www.serif.com/" style="fill-rule:evenodd;clip-rule:evenodd;stroke-linejoin:round;stroke-miterlimit:2;"><g><path d="M1000,3400c0,358.496 291.504,650 650,650l1700,0c358.496,0 650,-291.504 650,-650l0,-1800c0,-358.496 -291.504,-650 -650,-650l-1700,0c-358.496,0 -650,291.504 -650,650l0,1800Zm300,-1800c0,-193 157,-350 350,-350l1700,0c193,0 350,157 350,350l0,1800c0,193 -157,350 -350,350l-1700,0c-193,0 -350,-157 -350,-350l0,-1800Z" style="fill-rule:nonzero;"/></g></svg>