<?xml version="1.0" encoding="UTF-8"?>
<svg width="1200pt" height="1200pt" version="1.1" viewBox="0 0 1200 1200" xmlns="http://www.w3.org/2000/svg">
 <g>
  <path d="m862.56 625.44c6.6016 6.6016 16.078 10.559 25.441 10.559 2.1602 0 4.4414-0.23828 7.0781-0.71875 2.1602-0.35938 4.3203-1.0781 6.6016-2.0391 2.2812-0.96094 4.4414-2.0391 6.4805-3.3594 1.8008-1.1992 3.7188-2.8789 5.5195-4.5586 6.4805-6.4805 10.32-15.84 10.32-25.199 0-2.1602-0.23828-4.4414-0.71875-7.0781-0.35938-2.1602-1.0781-4.3203-2.0391-6.6016-0.96094-2.2812-2.0391-4.3203-3.2383-6.1211-1.3203-2.0391-2.6406-3.7188-4.6797-5.8789-1.3203-1.1992-3.2383-2.8789-5.3984-4.3203-1.6797-1.0781-3.8398-2.2812-6.1211-3.1211-2.2812-0.96094-4.5586-1.6797-6.6016-2.0391-11.762-2.3984-24.238 1.4414-32.52 9.7188-1.4414 1.5586-3.1211 3.4805-4.5586 5.6406-1.0781 1.8008-2.2812 3.9609-3.2383 6.1211-0.96094 2.2812-1.5586 4.4414-2.0391 6.6016-0.48047 2.3984-0.71875 4.4414-0.71875 7.0781 0 9.3594 3.8398 18.719 10.559 25.441z"/>
  <path d="m337.44 574.44c-1.5586-1.4414-3.4805-3.1211-5.5195-4.5586-1.6797-1.0781-3.8398-2.2812-6.1211-3.1211-2.2812-0.96094-4.5586-1.6797-6.6016-2.0391-2.3984-0.48047-4.8008-0.71875-7.1992-0.71875s-4.5586 0.23828-6.7188 0.71875c-2.3984 0.48047-4.5586 1.0781-6.9609 2.1602-2.2812 0.96094-4.4414 2.0391-6.4805 3.3594-1.8008 1.1992-3.7188 2.8789-5.5195 4.5586-6.4805 6.6016-10.32 15.84-10.32 25.32 0 2.1602 0.23828 4.4414 0.71875 7.0781 0.35938 2.1602 1.0781 4.3203 2.0391 6.6016 0.96094 2.2812 2.0391 4.4414 3.3594 6.4805 1.1992 1.8008 2.7617 3.7188 4.3203 5.2812 1.5586 1.4414 3.4805 3.1211 5.6406 4.5586 1.6797 1.0781 3.8398 2.2812 6.1211 3.1211 2.2812 0.96094 4.5586 1.6797 6.7188 2.0391 2.6406 0.48047 4.9219 0.71875 7.0781 0.71875 9.3594 0 18.719-3.8398 25.559-10.559 1.5586-1.5586 3-3.3594 4.1992-5.1602 1.4414-2.1602 2.5195-4.1992 3.4805-6.4805s1.6797-4.5586 2.0391-6.7188c0.48047-2.6406 0.71875-4.9219 0.71875-7.0781 0-9.3594-3.8398-18.719-10.559-25.559z"/>
  <path d="m574.56 625.44c13.559 13.441 37.32 13.32 51 0 6.6016-6.7188 10.441-15.961 10.441-25.441s-3.8398-18.719-10.559-25.559c-13.441-13.199-37.32-13.32-51 0-6.6016 6.7188-10.441 15.961-10.441 25.441 0 9.4805 3.8398 18.719 10.559 25.441z"/>
  <path d="m888 348c2.1602 0 4.4414-0.23828 7.0781-0.71875 2.1602-0.35938 4.3203-1.0781 6.6016-2.0391 2.2812-0.96094 4.4414-2.0391 6.4805-3.3594 1.8008-1.1992 3.7188-2.8789 5.5195-4.5586 6.4805-6.4805 10.32-15.84 10.32-25.199s-3.8398-18.719-10.559-25.559c-1.5586-1.4414-3.4805-3.1211-5.5195-4.5586-1.6797-1.0781-3.8398-2.2812-6.1211-3.1211-2.2812-0.96094-4.5586-1.6797-6.6016-2.0391-2.2812-0.48047-4.5586-0.71875-6.8398-0.71875-9.4805 0-19.078 3.8398-25.801 10.441-6.7188 6.7188-10.559 16.078-10.559 25.441 0 9.3594 3.8398 18.719 10.559 25.559 6.4805 6.4805 16.078 10.441 25.441 10.441z"/>
  <path d="m347.28 304.92c-0.35938-2.1602-1.0781-4.3203-2.0391-6.6016-0.96094-2.2812-2.0391-4.3203-3.2383-6.1211-1.3203-2.0391-2.6406-3.7188-4.6797-5.8789-1.3203-1.1992-3.2383-2.8789-5.3984-4.3203-1.6797-1.0781-3.8398-2.2812-6.1211-3.1211-2.2812-0.96094-4.5586-1.6797-6.6016-2.0391-4.6797-0.96094-9.6016-0.96094-14.16 0-2.1602 0.48047-4.3203 1.0781-6.7188 2.0391-2.2812 0.96094-4.4414 2.0391-6.4805 3.3594-1.8008 1.1992-3.7188 2.7617-5.2812 4.3203-1.4414 1.5586-3.1211 3.4805-4.5586 5.6406-1.0781 1.8008-2.2812 3.9609-3.2383 6.1211-0.96094 2.2812-1.5586 4.4414-2.0391 6.6016-0.48047 2.6406-0.71875 4.9219-0.71875 7.0781 0 2.1602 0.23828 4.4414 0.71875 7.0781 0.35938 2.1602 1.0781 4.3203 2.0391 6.6016 0.96094 2.1602 2.0391 4.3203 3.2383 6.2383 1.4414 2.0391 3 3.9609 4.6797 5.6406 1.3203 1.3203 3.2383 2.8789 5.3984 4.3203 1.6797 1.0781 3.8398 2.2812 6.1211 3.1211 2.2812 0.96094 4.5586 1.6797 6.7188 2.0391 5.1602 0.96094 8.8789 0.96094 14.16 0 2.1602-0.35937 4.3203-1.0781 6.6016-2.0391s4.4414-2.0391 6.4805-3.3594c1.8008-1.1992 3.7188-2.8789 5.5195-4.5586 1.5586-1.6797 3-3.3594 3.9609-5.0391 1.4414-2.1602 2.5195-4.1992 3.4805-6.4805s1.6797-4.5586 2.0391-6.7188c0.48047-2.6406 0.71875-4.9219 0.71875-7.0781 0-2.1602-0.23828-4.4414-0.71875-7.0781z"/>
  <path d="m570.12 332.04c1.4414 2.0391 3 3.9609 4.6797 5.6406 1.3203 1.1992 3.2383 2.8789 5.3984 4.3203 1.6797 1.0781 3.8398 2.2812 6.1211 3.1211 2.2812 0.96094 4.5586 1.6797 6.7188 2.0391 2.6406 0.48047 4.9219 0.71875 7.0781 0.71875 9.3594 0 18.719-3.8398 25.559-10.559 1.4414-1.5586 3.1211-3.4805 4.5586-5.5195 1.0781-1.6797 2.2812-3.8398 3.1211-6.1211 0.96094-2.2812 1.6797-4.5586 2.0391-6.7188 0.48047-2.6406 0.71875-4.9219 0.71875-7.0781 0-9.3594-3.8398-18.719-10.559-25.559-1.5586-1.4414-3.4805-3.1211-5.5195-4.5586-1.6797-1.0781-3.8398-2.2812-6.1211-3.1211-2.2812-0.96094-4.5586-1.6797-6.6016-2.0391-11.762-2.2812-24.238 1.4414-32.52 9.7188-6.7188 6.7188-10.559 16.078-10.559 25.441 0 2.1602 0.23828 4.4414 0.71875 7.0781 0.35938 2.1602 1.0781 4.3203 2.0391 6.6016 0.96094 2.1602 2.0391 4.3203 3.2383 6.2383z"/>
  <path d="m852.6 894.6v0.48047c0.48047 2.1602 1.1992 4.3203 2.1602 6.6016 0.96094 2.2812 2.0391 4.4414 3.3594 6.4805 1.1992 1.8008 2.8789 3.7188 4.5586 5.5195 6.3594 6.3594 15.84 10.32 25.199 10.32 2.1602 0 4.4414-0.23828 7.0781-0.71875 2.1602-0.35938 4.3203-1.0781 6.6016-2.0391 2.2812-0.96094 4.4414-2.0391 6.4805-3.3594 1.8008-1.1992 3.7188-2.8789 5.5195-4.5586 1.5586-1.6797 3-3.3594 3.9609-5.0391 1.4414-2.1602 2.5195-4.1992 3.4805-6.4805s1.6797-4.5586 2.0391-6.7188c0.48047-2.6406 0.71875-4.9219 0.71875-7.0781 0-2.1602-0.23828-4.4414-0.71875-7.0781-0.35937-2.1602-1.0781-4.3203-2.0391-6.6016s-2.0391-4.3203-3.2383-6.1211c-1.3203-2.0391-2.6406-3.7188-4.6797-5.8789-1.3203-1.1992-3.2383-2.8789-5.3984-4.3203-1.6797-1.0781-3.8398-2.2812-6.1211-3.1211-2.2812-0.96094-4.5586-1.6797-6.6016-2.0391-2.2812-0.48047-4.5586-0.71875-6.8398-0.71875-9.4805 0-19.078 3.8398-25.801 10.441-1.4414 1.5586-3.1211 3.4805-4.5586 5.6406-1.0781 1.8008-2.2812 3.9609-3.2383 6.1211-0.96094 2.2812-1.5586 4.4414-2.0391 6.6016-0.48047 2.3984-0.71875 4.4414-0.71875 7.0781 0 2.6406 0.23828 4.8008 0.60156 6.6016z"/>
  <path d="m345.24 874.2c-0.96094-2.2812-2.0391-4.3203-3.2383-6.1211-1.3203-2.0391-2.6406-3.7188-4.6797-5.8789-1.3203-1.1992-3.2383-2.8789-5.3984-4.3203-1.6797-1.0781-3.8398-2.2812-6.1211-3.1211-2.2812-0.96094-4.5586-1.6797-6.6016-2.0391-2.3984-0.48047-4.6797-0.71875-7.0781-0.71875-2.3984 0-4.8008 0.23828-7.0781 0.71875-2.1602 0.48047-4.3203 1.0781-6.7188 2.0391-2.2812 0.96094-4.4414 2.0391-6.4805 3.3594-1.8008 1.1992-3.7188 2.7617-5.2812 4.3203-1.4414 1.5586-3.1211 3.4805-4.5586 5.6406-1.0781 1.8008-2.2812 3.9609-3.2383 6.1211-0.96094 2.2812-1.5586 4.4414-2.0391 6.6016-0.48047 2.6406-0.71875 4.9219-0.71875 7.0781 0 2.1602 0.23828 4.4414 0.71875 7.0781 0.35938 2.1602 1.0781 4.3203 2.0391 6.6016s2.0391 4.4414 3.3594 6.4805c1.1992 1.8008 2.8789 3.7188 4.5586 5.5195 1.3203 1.3203 3.2383 2.8789 5.3984 4.3203 1.6797 1.0781 3.8398 2.2812 6.1211 3.1211 2.2812 0.96094 4.5586 1.6797 6.7188 2.0391 5.1602 0.96094 8.8789 0.96094 14.16 0 2.1602-0.35937 4.3203-1.0781 6.6016-2.0391s4.4414-2.0391 6.4805-3.3594c1.8008-1.1992 3.7188-2.8789 5.5195-4.5586 6.4805-6.4805 10.32-15.84 10.32-25.199 0-2.1602-0.23828-4.4414-0.71875-7.0781-0.35938-2.1602-1.0781-4.3203-2.0391-6.6016z"/>
  <path d="m574.56 913.44c6.7188 6.7188 15.961 10.559 25.441 10.559 2.1602 0 4.4414-0.23828 7.0781-0.71875 2.1602-0.35938 4.3203-1.0781 6.6016-2.0391 2.2812-0.96094 4.4414-2.0391 6.4805-3.3594 1.8008-1.1992 3.7188-2.8789 5.5195-4.5586 6.4805-6.4805 10.32-15.84 10.32-25.199s-3.8398-18.719-10.559-25.559c-1.5586-1.4414-3.4805-3.1211-5.5195-4.5586-1.6797-1.0781-3.8398-2.2812-6.1211-3.1211-2.2812-0.96094-4.5586-1.6797-6.6016-2.0391-11.762-2.2812-24.238 1.4414-32.52 9.7188-6.7188 6.7188-10.559 16.078-10.559 25.441 0 9.3594 3.8398 18.719 10.559 25.441z"/>
 </g>
</svg>
