<?xml version="1.0" encoding="UTF-8"?>
<svg width="1200pt" height="1200pt" version="1.1" viewBox="0 0 1200 1200" xmlns="http://www.w3.org/2000/svg">
 <path d="m960 456c0-9.6016-3.7188-18.602-10.559-25.441-14.039-14.039-36.84-14.039-50.879 0l-262.56 262.56c-9.2383 9.2383-22.32 14.52-36 14.52-13.68 0-26.762-5.2812-36-14.52l-262.56-262.56c-6.9609-6.9609-16.199-10.559-25.441-10.559-9.2383 0-18.48 3.4805-25.441 10.559s-10.559 15.84-10.559 25.441 3.7188 18.602 10.559 25.441l262.56 262.56c23.16 23.16 54.121 36 86.879 36 32.762 0 63.719-12.84 86.879-36l262.56-262.56c6.8398-6.8398 10.559-15.84 10.559-25.441z"/>
</svg>
